<svg width="20" height="20" viewBox="0 0 20 20" fill="none" xmlns="http://www.w3.org/2000/svg">
<g id="linkedin">
<path id="Vector" d="M17.103 1.66663H2.89698C2.57068 1.66663 2.25774 1.79625 2.02701 2.02698C1.79628 2.25771 1.66666 2.57065 1.66666 2.89695V17.103C1.66666 17.4293 1.79628 17.7422 2.02701 17.9729C2.25774 18.2037 2.57068 18.3333 2.89698 18.3333H17.103C17.4293 18.3333 17.7422 18.2037 17.973 17.9729C18.2037 17.7422 18.3333 17.4293 18.3333 17.103V2.89695C18.3333 2.57065 18.2037 2.25771 17.973 2.02698C17.7422 1.79625 17.4293 1.66663 17.103 1.66663ZM6.63425 15.8645H4.12846V7.90505H6.63425V15.8645ZM5.37962 6.80204C5.09538 6.80044 4.81799 6.71468 4.58244 6.55558C4.3469 6.39647 4.16377 6.17116 4.05615 5.90808C3.94854 5.64499 3.92127 5.35593 3.97779 5.07736C4.03431 4.79879 4.17207 4.54321 4.37371 4.34286C4.57534 4.14252 4.83181 4.00639 5.11073 3.95167C5.38966 3.89694 5.67854 3.92607 5.94093 4.03537C6.20332 4.14467 6.42745 4.32924 6.58504 4.5658C6.74262 4.80236 6.8266 5.0803 6.82638 5.36454C6.82906 5.55484 6.7934 5.74374 6.72153 5.91996C6.64965 6.09619 6.54303 6.25614 6.40803 6.39028C6.27302 6.52443 6.11239 6.63002 5.9357 6.70076C5.75902 6.7715 5.5699 6.80595 5.37962 6.80204ZM15.8704 15.8715H13.3657V11.5231C13.3657 10.2407 12.8206 9.84487 12.1169 9.84487C11.3738 9.84487 10.6447 10.4051 10.6447 11.5555V15.8715H8.13888V7.91084H10.5486V9.01385H10.581C10.8229 8.52427 11.6701 7.68746 12.963 7.68746C14.3611 7.68746 15.8715 8.51732 15.8715 10.9479L15.8704 15.8715Z" fill="#98A2B3"/>
</g>
</svg>
