<svg width="20" height="20" viewBox="0 0 20 20" fill="none" xmlns="http://www.w3.org/2000/svg">
<g id="linkedin">
<path id="Vector" d="M17.103 1.66663H2.89695C2.57065 1.66663 2.25771 1.79625 2.02698 2.02698C1.79625 2.25771 1.66663 2.57065 1.66663 2.89695V17.103C1.66663 17.4293 1.79625 17.7422 2.02698 17.9729C2.25771 18.2037 2.57065 18.3333 2.89695 18.3333H17.103C17.4293 18.3333 17.7422 18.2037 17.9729 17.9729C18.2037 17.7422 18.3333 17.4293 18.3333 17.103V2.89695C18.3333 2.57065 18.2037 2.25771 17.9729 2.02698C17.7422 1.79625 17.4293 1.66663 17.103 1.66663ZM6.63422 15.8645H4.12843V7.90505H6.63422V15.8645ZM5.37959 6.80204C5.09535 6.80044 4.81796 6.71468 4.58241 6.55558C4.34687 6.39647 4.16374 6.17116 4.05612 5.90808C3.94851 5.64499 3.92124 5.35593 3.97776 5.07736C4.03428 4.79879 4.17204 4.54321 4.37368 4.34286C4.57531 4.14252 4.83178 4.00639 5.1107 3.95167C5.38962 3.89694 5.67851 3.92607 5.9409 4.03537C6.20329 4.14467 6.42742 4.32924 6.585 4.5658C6.74259 4.80236 6.82657 5.0803 6.82635 5.36454C6.82903 5.55484 6.79337 5.74374 6.7215 5.91996C6.64962 6.09619 6.543 6.25614 6.408 6.39028C6.27299 6.52443 6.11235 6.63002 5.93567 6.70076C5.75899 6.7715 5.56987 6.80595 5.37959 6.80204ZM15.8703 15.8715H13.3657V11.5231C13.3657 10.2407 12.8206 9.84487 12.1169 9.84487C11.3738 9.84487 10.6446 10.4051 10.6446 11.5555V15.8715H8.13885V7.91084H10.5486V9.01385H10.581C10.8229 8.52427 11.6701 7.68746 12.9629 7.68746C14.3611 7.68746 15.8715 8.51732 15.8715 10.9479L15.8703 15.8715Z" fill="#98A2B3"/>
</g>
</svg>
